<svg width="565" height="565" viewBox="0 0 565 565" fill="none" xmlns="http://www.w3.org/2000/svg">
<rect width="565" height="565" rx="120" fill="#F8F7F3"/>
<path d="M286.463 472.601C186.011 472.601 104.578 387.817 104.578 283.232C104.578 178.646 186.011 93.8623 286.463 93.8623C326.227 93.8623 354.022 100.182 400.111 121.506L442.072 152.118V249.455H353.281L325.111 245.93V195.282C325.111 175.716 309.249 159.854 289.683 159.854C257.353 159.854 247.821 201.242 247.821 220.809V350.194C247.821 369.76 257.353 411.148 289.683 411.148C309.249 411.148 325.111 395.287 325.111 375.72V331.025L347.898 324.435H399.423L441.384 355.046V452.383C401.142 461.67 341.549 472.601 286.463 472.601Z" fill="#FFFCF0"/>
<path d="M247.821 350.194C247.821 350.194 247.821 240.375 247.821 220.809M247.821 350.194C247.821 369.76 257.353 411.148 289.683 411.148C309.249 411.148 325.111 395.287 325.111 375.72V331.025L347.898 324.435H399.423L441.384 355.046V452.383C401.142 461.67 341.549 472.601 286.463 472.601C186.011 472.601 104.578 387.817 104.578 283.232C104.578 178.646 186.011 93.8623 286.463 93.8623C326.227 93.8623 354.022 100.182 400.111 121.506L442.072 152.118V249.455H353.281L325.111 245.93V195.282C325.111 175.716 309.249 159.854 289.683 159.854C257.353 159.854 247.821 201.242 247.821 220.809M247.821 350.194V220.809" stroke="#262931" stroke-width="8"/>
<path fill-rule="evenodd" clip-rule="evenodd" d="M400.111 121.506V218.843H353.281C353.281 176.716 334.165 145.779 288.198 145.779H287.94C298.025 137.652 309.8 131.249 320.749 131.249C313.146 129.136 304.913 127.944 296.638 127.944H293.065C243.909 127.944 204.06 167.793 204.06 216.949V338.561C204.06 385.904 240.427 424.576 287.069 427.367C296.165 427.367 308.065 424.576 316.452 420.311C332.862 411.968 345.817 396.176 347.072 375.72C347.898 362.262 347.898 345.429 347.898 324.435H399.423L399.423 421.772C365.921 439.583 331.058 449.583 295.568 451.648H291.561C211.367 451.648 154.047 373.084 154.047 274.284C154.047 175.484 209.517 93.8768 289.712 93.8768L289.881 93.8784C327.849 94.2402 355.354 100.798 400.111 121.506Z" fill="#4AA6FB"/>
<path d="M400.111 121.506V218.843M400.111 121.506L442.072 152.118V249.455M400.111 121.506C355.354 100.798 327.849 94.2402 289.881 93.8784M441.384 452.383C401.142 461.67 341.549 472.601 286.463 472.601C239.494 472.601 196.684 454.066 164.412 423.637M441.384 452.383V355.046L399.423 324.435M441.384 452.383L399.423 421.772M400.111 218.843L442.072 249.455M400.111 218.843H353.281M442.072 249.455H353.281L325.111 245.93M399.423 324.435L399.423 421.772M399.423 324.435H347.898M399.423 421.772C365.921 439.583 331.058 449.583 295.568 451.648M325.111 245.93V195.282C325.111 175.716 309.249 159.854 289.683 159.854C279.563 159.854 271.678 163.909 265.619 170.08M325.111 245.93L353.281 218.843M353.281 218.843C353.281 176.716 334.165 145.779 288.198 145.779H287.94M347.898 324.435L325.111 331.025V375.72C325.111 395.287 309.249 411.148 289.683 411.148C286.479 411.148 283.499 410.742 280.729 409.99M347.898 324.435C347.898 345.429 347.898 362.262 347.072 375.72C345.817 396.176 332.862 411.968 316.452 420.311M164.412 423.637C127.663 388.988 104.578 338.916 104.578 283.232C104.578 178.646 186.011 93.8623 286.463 93.8623C287.612 93.8623 288.751 93.8676 289.881 93.8784M164.412 423.637C208.172 444.901 252.334 454.163 295.568 451.648M265.619 170.08C252.32 183.625 247.821 207.367 247.821 220.809C247.821 240.375 247.821 350.194 247.821 350.194C247.821 350.194 247.821 350.194 247.821 350.194C247.821 367.821 255.557 403.159 280.729 409.99M265.619 170.08C269.917 163.221 278.129 153.685 287.94 145.779M280.729 409.99C282.99 412.944 293.3 419.143 316.452 420.311M316.452 420.311C308.065 424.576 296.165 427.367 287.069 427.367C240.427 424.576 204.06 385.904 204.06 338.561V216.949C204.06 167.793 243.909 127.944 293.065 127.944H296.638C304.913 127.944 313.146 129.136 320.749 131.249C309.8 131.249 298.025 137.652 287.94 145.779M291.561 451.648C211.367 451.648 154.047 373.084 154.047 274.284C154.047 175.484 209.517 93.8768 289.712 93.8768L289.881 93.8784M291.561 451.648C292.607 451.648 294.873 451.648 295.568 451.648M291.561 451.648H295.568" stroke="#262931" stroke-width="8"/>
<path d="M291.561 451.648C211.367 451.648 154.047 373.084 154.047 274.284C154.047 175.484 209.517 93.8768 289.712 93.8768C288.637 93.8671 287.554 93.8623 286.463 93.8623C263.465 93.8623 241.464 98.3061 221.21 106.414C221.194 106.42 221.179 106.426 221.163 106.433L221.16 106.434C168.886 131.769 131.682 196.92 131.682 273.297C131.682 365.661 186.092 441.61 255.766 450.573L257.709 450.855C270.385 452.115 283.015 452.378 295.568 451.648H291.561Z" fill="#1F4F7C"/>
<path d="M442.072 249.455L400.111 218.843H353.281L325.111 245.93L353.281 249.455H442.072Z" fill="#1F4F7C"/>
<path d="M400.111 121.506V218.843L442.072 249.455V152.118L400.111 121.506Z" fill="#1F4F7C"/>
<path d="M441.384 452.383V355.046L399.423 324.435L399.423 421.772L441.384 452.383Z" fill="#1F4F7C"/>
<path d="M286.463 472.601C341.549 472.601 401.142 461.67 441.384 452.383L399.423 421.772C365.921 439.583 331.058 449.583 295.568 451.648C283.015 452.378 270.385 452.115 257.709 450.855C226.724 447.773 195.467 438.727 164.412 423.637C196.684 454.066 239.494 472.601 286.463 472.601Z" fill="#1F4F7C"/>
<path d="M247.821 350.194V220.809C247.821 207.367 252.32 183.625 265.619 170.08C269.917 163.221 278.129 153.685 287.94 145.779C298.025 137.652 309.8 131.249 320.749 131.249C313.146 129.136 304.913 127.944 296.638 127.944H293.065C243.909 127.944 204.06 167.793 204.06 216.949V338.561C204.06 385.904 240.427 424.576 287.069 427.367C296.165 427.367 308.065 424.576 316.452 420.311C293.3 419.143 282.99 412.944 280.729 409.99C255.557 403.159 247.821 367.821 247.821 350.194Z" fill="#1F4F7C"/>
<path d="M286.463 93.8623C287.612 93.8623 288.751 93.8676 289.881 93.8784M286.463 93.8623C263.465 93.8623 241.464 98.3061 221.21 106.414M286.463 93.8623C287.554 93.8623 288.637 93.8671 289.712 93.8768M400.111 121.506V218.843M400.111 121.506L442.072 152.118V249.455M400.111 121.506C355.354 100.798 327.849 94.2402 289.881 93.8784M441.384 452.383C401.142 461.67 341.549 472.601 286.463 472.601C239.494 472.601 196.684 454.066 164.412 423.637M441.384 452.383V355.046L399.423 324.435M441.384 452.383L399.423 421.772M400.111 218.843L442.072 249.455M400.111 218.843H353.281M442.072 249.455H353.281L325.111 245.93M399.423 324.435L399.423 421.772M399.423 324.435H347.898M399.423 421.772C365.921 439.583 331.058 449.583 295.568 451.648M247.821 220.809C247.821 240.375 247.821 350.194 247.821 350.194M247.821 220.809C247.821 207.367 252.32 183.625 265.619 170.08M247.821 220.809V350.194M325.111 245.93V195.282C325.111 175.716 309.249 159.854 289.683 159.854C279.563 159.854 271.678 163.909 265.619 170.08M325.111 245.93L353.281 218.843M353.281 218.843C353.281 176.716 334.165 145.779 288.198 145.779H287.94M347.898 324.435L325.111 331.025V375.72C325.111 395.287 309.249 411.148 289.683 411.148C286.479 411.148 283.499 410.742 280.729 409.99M347.898 324.435C347.898 345.429 347.898 362.262 347.072 375.72C345.817 396.176 332.862 411.968 316.452 420.311M164.412 423.637C127.663 388.988 104.578 338.916 104.578 283.232C104.578 202.608 152.971 133.752 221.163 106.433M164.412 423.637C195.467 438.727 226.724 447.773 257.709 450.855M265.619 170.08C269.917 163.221 278.129 153.685 287.94 145.779M280.729 409.99C255.557 403.159 247.821 367.821 247.821 350.194M280.729 409.99C282.99 412.944 293.3 419.143 316.452 420.311M316.452 420.311C308.065 424.576 296.165 427.367 287.069 427.367C240.427 424.576 204.06 385.904 204.06 338.561V216.949C204.06 167.793 243.909 127.944 293.065 127.944H296.638C304.913 127.944 313.146 129.136 320.749 131.249C309.8 131.249 298.025 137.652 287.94 145.779M291.561 451.648C211.367 451.648 154.047 373.084 154.047 274.284C154.047 175.484 209.517 93.8768 289.712 93.8768M291.561 451.648C292.607 451.648 294.873 451.648 295.568 451.648M291.561 451.648H295.568M289.712 93.8768L289.881 93.8784M295.568 451.648C283.015 452.378 270.385 452.115 257.709 450.855M257.709 450.855L255.766 450.573C186.092 441.61 131.682 365.661 131.682 273.297C131.682 196.92 168.886 131.769 221.16 106.434L221.163 106.433M221.21 106.414C221.194 106.42 221.179 106.426 221.163 106.433M221.21 106.414L221.163 106.433" stroke="#262931" stroke-width="8"/>
</svg>
